# xmcd
# 
# Track frame offsets:
#     150
#     16156
#     30466
# 
# Disc length: 637
# 
# Revision: 3
# Processed by: cddbd v1.5.2PL0 Copyright (c) Steve Scherf et al.
# Submitted via: fre:ac v1.1rc2
# 
DISCID=14027b03
DTITLE=Smashing Pumpkins - Perfect [Single]
DYEAR=1998
DGENRE=Alternative
TTITLE0=Perfect
TTITLE1=Summer
TTITLE2=Daphne Descends (Kerry B. Mix)
EXTD=
EXTT0=
EXTT1=
EXTT2=
PLAYORDER=
